<svg width="335" height="69" viewBox="0 0 335 69" fill="none" xmlns="http://www.w3.org/2000/svg">
<path d="M133.234 18.4H141.01V45.664H157.858V52H133.234V18.4ZM177.912 52.576C174.424 52.576 171.272 51.824 168.456 50.32C165.672 48.816 163.48 46.752 161.88 44.128C160.312 41.472 159.528 38.496 159.528 35.2C159.528 31.904 160.312 28.944 161.88 26.32C163.48 23.664 165.672 21.584 168.456 20.08C171.272 18.576 174.424 17.824 177.912 17.824C181.4 17.824 184.536 18.576 187.32 20.08C190.104 21.584 192.296 23.664 193.896 26.32C195.496 28.944 196.296 31.904 196.296 35.2C196.296 38.496 195.496 41.472 193.896 44.128C192.296 46.752 190.104 48.816 187.32 50.32C184.536 51.824 181.4 52.576 177.912 52.576ZM177.912 45.952C179.896 45.952 181.688 45.504 183.288 44.608C184.888 43.68 186.136 42.4 187.032 40.768C187.96 39.136 188.424 37.28 188.424 35.2C188.424 33.12 187.96 31.264 187.032 29.632C186.136 28 184.888 26.736 183.288 25.84C181.688 24.912 179.896 24.448 177.912 24.448C175.928 24.448 174.136 24.912 172.536 25.84C170.936 26.736 169.672 28 168.744 29.632C167.848 31.264 167.4 33.12 167.4 35.2C167.4 37.28 167.848 39.136 168.744 40.768C169.672 42.4 170.936 43.68 172.536 44.608C174.136 45.504 175.928 45.952 177.912 45.952ZM251.799 18.4L240.807 52H232.455L225.063 29.248L217.431 52H209.127L198.087 18.4H206.151L213.735 42.016L221.655 18.4H228.855L236.535 42.208L244.359 18.4H251.799ZM286.956 18.4V52H280.572L263.82 31.6V52H256.14V18.4H262.572L279.276 38.8V18.4H286.956ZM305.946 52.576C303.29 52.576 300.714 52.224 298.218 51.52C295.754 50.784 293.77 49.84 292.266 48.688L294.906 42.832C296.346 43.888 298.058 44.736 300.042 45.376C302.026 46.016 304.01 46.336 305.994 46.336C308.202 46.336 309.834 46.016 310.89 45.376C311.946 44.704 312.474 43.824 312.474 42.736C312.474 41.936 312.154 41.28 311.514 40.768C310.906 40.224 310.106 39.792 309.114 39.472C308.154 39.152 306.842 38.8 305.178 38.416C302.618 37.808 300.522 37.2 298.89 36.592C297.258 35.984 295.85 35.008 294.666 33.664C293.514 32.32 292.938 30.528 292.938 28.288C292.938 26.336 293.466 24.576 294.522 23.008C295.578 21.408 297.162 20.144 299.274 19.216C301.418 18.288 304.026 17.824 307.098 17.824C309.242 17.824 311.338 18.08 313.386 18.592C315.434 19.104 317.226 19.84 318.762 20.8L316.362 26.704C313.258 24.944 310.154 24.064 307.05 24.064C304.874 24.064 303.258 24.416 302.202 25.12C301.178 25.824 300.666 26.752 300.666 27.904C300.666 29.056 301.258 29.92 302.442 30.496C303.658 31.04 305.498 31.584 307.962 32.128C310.522 32.736 312.618 33.344 314.25 33.952C315.882 34.56 317.274 35.52 318.426 36.832C319.61 38.144 320.202 39.92 320.202 42.16C320.202 44.08 319.658 45.84 318.57 47.44C317.514 49.008 315.914 50.256 313.77 51.184C311.626 52.112 309.018 52.576 305.946 52.576Z" fill="#4F4359"/>
<path d="M122 17C94.1235 17 93.8768 55 122 55" stroke="#2F9DE0" stroke-width="7.5"/>
<path d="M122 55H320" stroke="#FF6643" stroke-width="7.5"/>
<path d="M122 17H320" stroke="#FF3B3B" stroke-width="7.5"/>
<g clip-path="url(#clip0)">
<path d="M34.5 69C53.5538 69 69 53.5538 69 34.5C69 15.4462 53.5538 0 34.5 0C15.4462 0 0 15.4462 0 34.5C0 53.5538 15.4462 69 34.5 69Z" fill="#4F4359"/>
<path d="M69 34.5C69 30.0207 68.1459 25.7408 66.5924 21.814L59.6124 14.8082C59.6124 14.8082 55.3739 15.3154 54.6163 15.7765L51.0211 12.1262C51.0211 12.1262 41.015 12.9278 41.1838 15.9991L28.5969 14.1689L26.1785 11.7405L9.56567 29.8619L18.2205 38.4383C18.5508 38.8858 18.9475 39.2822 19.3962 39.614C19.7265 40.0615 20.1232 40.4577 20.5718 40.7897C20.9022 41.2372 21.2989 41.6336 21.7475 41.9653C22.0779 42.4129 22.4746 42.8092 22.9232 43.141C23.2535 43.5886 23.6503 43.9848 24.0989 44.3167C24.4292 44.7643 24.826 45.1605 25.2746 45.4924C25.4307 45.704 25.6028 45.9031 25.7871 46.0903L17.7713 54.1061L32.6134 68.9483C33.2382 68.982 33.867 69.0001 34.5003 69.0001C53.5538 69 69 53.5538 69 34.5V34.5Z" fill="#372A44"/>
<path d="M22.5604 10.1321C20.0313 9.99301 17.8051 11.5646 17.003 13.8385C16.1603 13.2181 15.1342 12.8269 14.0113 12.765C10.9399 12.5961 8.31316 14.949 8.1443 18.0205C8.06614 19.442 8.52892 20.7677 9.35248 21.7992C8.42084 22.7342 7.81547 24.0011 7.73731 25.4226C7.56845 28.494 9.92132 31.1208 12.9928 31.2896C16.0641 31.4585 27.6469 19.0704 27.8158 15.9991C27.9848 12.9277 25.6319 10.3009 22.5604 10.1321V10.1321Z" fill="#99DB72"/>
<path d="M46.4393 10.1321C48.9684 9.99301 51.1946 11.5646 51.9968 13.8385C52.8394 13.2181 53.8656 12.8269 54.9884 12.765C58.0597 12.5961 60.6866 14.949 60.8554 18.0205C60.9336 19.442 60.4708 20.7677 59.6473 21.7992C60.5789 22.7342 61.1843 24.0011 61.2624 25.4226C61.4313 28.494 59.0784 31.1208 56.007 31.2896C52.9357 31.4585 41.3528 19.0704 41.184 15.9991C41.0151 12.9278 43.368 10.3009 46.4393 10.1321V10.1321Z" fill="#81BF58"/>
<path d="M34.4999 60.8011C47.8914 60.8011 58.7473 49.9452 58.7473 36.5537C58.7473 23.1622 47.8914 12.3063 34.4999 12.3063C21.1084 12.3063 10.2524 23.1622 10.2524 36.5537C10.2524 49.9452 21.1084 60.8011 34.4999 60.8011Z" fill="white"/>
<path d="M58.7474 36.5537C58.7474 49.945 47.8911 60.8013 34.4998 60.8013V12.3061C47.8912 12.3061 58.7474 23.1624 58.7474 36.5537V36.5537Z" fill="#EFE8E6"/>
<path d="M31.0637 30.072C31.8989 26.4564 29.645 22.8483 26.0294 22.0131C22.4139 21.1779 18.8058 23.4318 17.9706 27.0474C17.1354 30.6629 19.3893 34.271 23.0048 35.1062C26.6204 35.9414 30.2285 33.6875 31.0637 30.072Z" fill="#4BCCF9"/>
<path d="M47.3414 34.6254C50.7045 33.0515 52.1549 29.0492 50.581 25.686C49.0071 22.3229 45.0048 20.8724 41.6417 22.4464C38.2785 24.0203 36.8281 28.0226 38.402 31.3857C39.9759 34.7488 43.9782 36.1993 47.3414 34.6254Z" fill="#2F9DE0"/>
<path d="M24.5262 31.131C25.9523 31.131 27.1083 29.9749 27.1083 28.5489C27.1083 27.1228 25.9523 25.9668 24.5262 25.9668C23.1002 25.9668 21.9441 27.1228 21.9441 28.5489C21.9441 29.9749 23.1002 31.131 24.5262 31.131Z" fill="#7F6866"/>
<path d="M44.4734 31.131C45.8995 31.131 47.0555 29.9749 47.0555 28.5489C47.0555 27.1228 45.8995 25.9668 44.4734 25.9668C43.0473 25.9668 41.8913 27.1228 41.8913 28.5489C41.8913 29.9749 43.0473 31.131 44.4734 31.131Z" fill="#634C4C"/>
<path d="M34.4999 46.7556C37.7561 46.7556 40.3957 44.684 40.3957 42.1287C40.3957 39.5733 37.7561 37.5018 34.4999 37.5018C31.2437 37.5018 28.604 39.5733 28.604 42.1287C28.604 44.684 31.2437 46.7556 34.4999 46.7556Z" fill="#FF6643"/>
<path d="M34.4999 55.78C29.8409 55.78 25.3653 53.924 21.431 50.3852C20.3979 49.4559 20.3878 47.8386 21.4093 46.8964C22.3001 46.0749 23.6733 46.0571 24.5744 46.8673C27.6355 49.62 31.0334 51.0631 34.5 51.0631C37.9665 51.0631 41.3646 49.6199 44.4256 46.8673C45.3267 46.0571 46.6998 46.0749 47.5906 46.8963C48.6121 47.8383 48.6022 49.4559 47.569 50.3851C43.6344 53.924 39.1589 55.78 34.4999 55.78V55.78Z" fill="#FF6643"/>
<path d="M40.396 42.1291C40.396 44.6842 37.7559 46.7556 34.5 46.7556V37.5012C37.7559 37.5012 40.396 39.5726 40.396 42.1291Z" fill="#FF3B3B"/>
<path d="M48.3512 48.6302C48.3512 49.2744 48.0898 49.9172 47.5696 50.3848C43.6344 53.9238 39.1588 55.7795 34.5 55.7795V51.0627C37.9662 51.0627 41.365 49.6194 44.4255 46.8674C45.3271 46.0575 46.7003 46.075 47.5911 46.8957C48.0979 47.3634 48.3512 47.9968 48.3512 48.6302V48.6302Z" fill="#FF3B3B"/>
</g>
<defs>
<clipPath id="clip0">
<rect width="69" height="69" fill="white"/>
</clipPath>
</defs>
</svg>
