<svg width="40" height="40" viewBox="0 0 40 40" fill="none" xmlns="http://www.w3.org/2000/svg">
<path d="M34.8438 39.2188H5.15625C2.74 39.2188 0.78125 37.26 0.78125 34.8438V5.15625C0.78125 2.74 2.74 0.78125 5.15625 0.78125H34.8438C37.26 0.78125 39.2188 2.74 39.2188 5.15625V34.8438C39.2188 37.26 37.26 39.2188 34.8438 39.2188Z" fill="#C82D2D"/>
<path d="M7.37478 12.7344H10.7649C11.2925 12.7344 11.7588 13.0759 11.9184 13.5789C12.2587 14.6518 12.9338 16.5643 13.8802 18.2292C14.6487 19.5813 15.5806 20.7155 16.2677 21.4662C16.6122 21.8426 17.2396 21.5976 17.2396 21.0873V16.1949C17.2396 15.4772 17.0144 14.7775 16.5958 14.1945L16.2641 13.7325C16.1871 13.6253 16.1458 13.4967 16.1458 13.3648C16.1458 13.0166 16.4281 12.7344 16.7763 12.7344H21.5169C21.9448 12.7344 22.2917 13.0813 22.2917 13.5091V19.781C22.2917 20.1881 22.7128 20.4588 23.0831 20.2898L23.4056 20.1426C23.461 20.1173 23.5111 20.0814 23.5529 20.037C25.1827 18.3064 26.5039 16.3094 27.4592 14.1327L27.8138 13.3248C27.9712 12.9662 28.326 12.7348 28.7177 12.7352L32.0649 12.7391C32.6928 12.7398 33.0935 13.4092 32.7975 13.963L31.2511 16.8565C31.0511 17.2308 30.8285 17.5926 30.5848 17.9399L28.7751 20.5187C28.4538 20.9765 28.5158 21.6004 28.9208 21.9861L30.2461 23.2481C31.2718 24.2248 32.1658 25.3312 32.9053 26.5391L33.3018 27.1866C33.672 27.7913 33.2369 28.5677 32.528 28.5677H29.6382C29.0537 28.5677 28.494 28.3313 28.0865 27.9123L25.197 24.9411C24.6246 24.3526 23.8922 23.9451 23.0904 23.7691C22.6801 23.679 22.2917 23.9914 22.2917 24.4115V27.3307C22.2917 28.0139 21.7378 28.5677 21.0547 28.5677C18.631 28.5677 16.2746 27.7698 14.3495 26.2973C10.9387 23.6886 8.46572 20.0443 7.30127 15.9112L6.66892 13.6666C6.53705 13.1987 6.88869 12.7344 7.37478 12.7344Z" fill="white"/>
<path d="M32.528 29.349H29.6383C28.8475 29.349 28.0778 29.0238 27.5266 28.457L24.637 25.4859C24.2059 25.0427 23.6679 24.7276 23.073 24.5688V27.3308C23.073 28.4436 22.1676 29.349 21.0548 29.349C18.4744 29.349 15.9245 28.4856 13.8749 26.918C13.0996 26.325 12.3601 25.6711 11.6771 24.9744C11.3751 24.6663 11.3799 24.1716 11.688 23.8695C11.9962 23.5674 12.4908 23.5725 12.7929 23.8805C13.4242 24.5244 14.1076 25.1288 14.8242 25.6769C16.6029 27.0373 18.8156 27.7865 21.0548 27.7865C21.3062 27.7865 21.5105 27.582 21.5105 27.3308V24.4116C21.5105 23.9735 21.7063 23.5648 22.0477 23.2902C22.3891 23.0156 22.8305 22.9121 23.2581 23.0061C24.2121 23.2155 25.0762 23.6963 25.7572 24.3965L28.6467 27.3676C28.9055 27.6337 29.2669 27.7864 29.6383 27.7864H32.528C32.5462 27.7864 32.6019 27.7864 32.638 27.722C32.6741 27.6575 32.6451 27.6101 32.6355 27.5945L32.2391 26.947C31.5353 25.7975 30.6835 24.7433 29.7074 23.8138L28.3821 22.5518C27.6916 21.8942 27.5879 20.8504 28.1357 20.0698L29.9454 17.491C30.1702 17.1705 30.3778 16.8331 30.5623 16.488L32.1087 13.5946C32.114 13.5845 32.1222 13.5694 32.1074 13.5448C32.0927 13.5202 32.0755 13.5202 32.0641 13.5202L28.7168 13.5163H28.7166C28.6354 13.5163 28.5619 13.5643 28.5293 13.6387L28.1748 14.4465C27.1808 16.7109 25.8173 18.772 24.1218 20.5725C24.01 20.6912 23.8782 20.7856 23.7298 20.8533L23.4076 21.0003C22.9906 21.1907 22.5116 21.1564 22.1262 20.9085C21.7406 20.6607 21.5105 20.2392 21.5105 19.7809V13.5156H17.0702L17.2306 13.7389C17.7476 14.459 18.0209 15.3083 18.0209 16.1949V21.0873C18.0209 21.6448 17.685 22.1357 17.1651 22.3377C16.6459 22.5395 16.0675 22.4043 15.6916 21.9936C15.0053 21.2439 14.0163 20.0492 13.2012 18.6152C12.2076 16.8674 11.5045 14.8575 11.1738 13.8151C11.117 13.6359 10.9527 13.5156 10.765 13.5156H7.43804L8.05327 15.6993C8.41155 16.9709 8.90397 18.2089 9.51686 19.3788C9.7171 19.761 9.56968 20.2332 9.18741 20.4334C8.80507 20.6337 8.33304 20.4861 8.13288 20.104C7.46968 18.8382 6.93686 17.4988 6.54929 16.123L5.91686 13.8784C5.7871 13.4177 5.87843 12.9348 6.16725 12.5533C6.45632 12.1719 6.89632 11.9531 7.37475 11.9531H10.7649C11.6367 11.9531 12.3995 12.5116 12.6632 13.3427C12.9753 14.3266 13.6367 16.2197 14.5594 17.8431C15.162 18.9032 15.8738 19.8252 16.4584 20.5042V16.1949C16.4584 15.6373 16.2866 15.1031 15.9613 14.6502L15.6296 14.1881C15.4563 13.9469 15.3647 13.6621 15.3647 13.3648C15.3647 12.5864 15.9979 11.9531 16.7763 11.9531H21.517C22.3749 11.9531 23.073 12.6512 23.073 13.5091V19.4066C24.6047 17.7589 25.8394 15.8797 26.7439 13.8187L27.0984 13.0109C27.3802 12.3687 28.0153 11.9539 28.7166 11.9539C28.7173 11.9539 28.7179 11.9539 28.7186 11.9539L32.0658 11.9577C32.6376 11.9584 33.1544 12.2517 33.448 12.7423C33.7417 13.2329 33.7561 13.8269 33.4866 14.3311L31.9401 17.2246C31.7261 17.6251 31.4853 18.0167 31.2243 18.3886L29.4146 20.9673C29.3147 21.1098 29.3336 21.3002 29.4595 21.4202L30.7849 22.6823C31.8593 23.7054 32.7969 24.8657 33.5716 26.1311L33.968 26.7787C34.2867 27.2991 34.2994 27.9533 34.0011 28.4857C33.7029 29.0182 33.1384 29.349 32.528 29.349Z" fill="black"/>
<path d="M10.3076 22.9204C10.0644 22.9204 9.8246 22.8071 9.67202 22.5943L10.3069 22.1391L9.66866 22.5897C9.66835 22.5892 9.66366 22.5827 9.66335 22.5822C9.41194 22.2316 9.49241 21.7435 9.84304 21.492C10.1937 21.2405 10.6817 21.3211 10.9332 21.6717L10.9419 21.6838C11.1933 22.0344 11.1128 22.5225 10.7622 22.774C10.6243 22.8728 10.4651 22.9204 10.3076 22.9204Z" fill="black"/>
<path d="M16.005 36.25H9.63782C9.20641 36.25 8.85657 35.9002 8.85657 35.4688C8.85657 35.0373 9.20641 34.6875 9.63782 34.6875H16.005C16.4364 34.6875 16.7863 35.0373 16.7863 35.4688C16.7863 35.9002 16.4365 36.25 16.005 36.25Z" fill="black"/>
<path d="M19.5597 36.25H19.5504C19.119 36.25 18.7692 35.9002 18.7692 35.4688C18.7692 35.0373 19.119 34.6875 19.5504 34.6875H19.5597C19.9911 34.6875 20.341 35.0373 20.341 35.4688C20.341 35.9002 19.9912 36.25 19.5597 36.25Z" fill="black"/>
<path d="M34.8438 40H5.15625C2.31305 40 0 37.687 0 34.8438V5.15625C0 2.31305 2.31305 0 5.15625 0H34.8438C37.687 0 40 2.31305 40 5.15625V34.8438C40 37.687 37.687 40 34.8438 40ZM5.15625 1.5625C3.17469 1.5625 1.5625 3.17469 1.5625 5.15625V34.8438C1.5625 36.8253 3.17469 38.4375 5.15625 38.4375H34.8438C36.8253 38.4375 38.4375 36.8253 38.4375 34.8438V5.15625C38.4375 3.17469 36.8253 1.5625 34.8438 1.5625H5.15625Z" fill="black"/>
</svg>
